<?xml version="1.0" encoding="UTF-8" standalone="no"?>
<!DOCTYPE svg PUBLIC "-//W3C//DTD SVG 20010904//EN"
              "http://www.w3.org/TR/2001/REC-SVG-20010904/DTD/svg10.dtd">

<svg xmlns="http://www.w3.org/2000/svg"
     width="0.5in" height="0.5in"
     viewBox="0 0 150 150">
  <path id="Path"
        fill="#ff5050"
        d="M 37.45,26.00
           C 33.55,26.00 30.35,24.84 27.86,22.50
             25.37,20.16 24.12,17.29 24.12,13.89
             24.12,10.39 25.37,7.54 27.86,5.33
             30.35,3.11 33.55,2.00 37.45,2.00
             41.41,2.00 44.62,3.11 47.09,5.33
             49.56,7.54 50.80,10.39 50.80,13.89
             50.80,17.43 49.56,20.34 47.09,22.61
             44.62,24.87 41.41,26.00 37.45,26.00 Z
           M 48.89,111.53
           C 48.89,122.59 46.18,131.44 40.75,138.06
             35.33,144.69 27.52,148.00 17.33,148.00
             13.95,148.00 10.27,147.00 6.27,145.00
             6.27,145.00 6.27,127.00 6.27,127.00
             9.48,129.00 12.34,130.00 14.83,130.00
             22.10,130.00 25.73,124.32 25.73,112.97
             25.73,112.97 25.73,38.00 25.73,38.00
             25.73,38.00 48.89,38.00 48.89,38.00
             48.89,38.00 48.89,111.53 48.89,111.53 Z
           M 136.12,113.00
           C 136.12,113.00 112.98,113.00 112.98,113.00
             112.98,113.00 112.98,102.56 112.98,102.56
             112.98,102.56 112.69,102.56 112.69,102.56
             107.41,110.86 99.68,115.00 89.48,115.00
             80.11,115.00 72.56,111.68 66.84,105.03
             61.13,98.39 58.28,89.11 58.28,77.19
             58.28,64.74 61.43,54.77 67.72,47.27
             74.02,39.76 82.27,36.00 92.48,36.00
             102.15,36.00 108.88,39.56 112.69,46.67
             112.69,46.67 112.98,46.67 112.98,46.67
             112.98,46.67 112.98,2.00 112.98,2.00
             112.98,2.00 136.12,2.00 136.12,2.00
             136.12,2.00 136.12,113.00 136.12,113.00 Z
           M 113.42,76.52
           C 113.42,76.52 113.42,70.91 113.42,70.91
             113.42,66.05 112.00,62.02 109.17,58.81
             106.34,55.61 102.65,54.00 98.11,54.00
             92.98,54.00 88.98,56.01 86.09,60.02
             83.22,64.03 81.78,69.53 81.78,76.52
             81.78,83.08 83.17,88.14 85.95,91.69
             88.73,95.23 92.59,97.00 97.53,97.00
             102.22,97.00 106.04,95.13 108.98,91.39
             111.94,87.65 113.42,82.70 113.42,76.52 Z" />
</svg>
